<mxfile host="app.diagrams.net" agent="Mozilla/5.0 (Windows NT 10.0; Win64; x64; rv:136.0) Gecko/20100101 Firefox/136.0" version="26.1.1">
  <diagram name="Page-1" id="qhSnvHry2gUyjhncl0ZC">
    <mxGraphModel dx="996" dy="558" grid="1" gridSize="10" guides="1" tooltips="1" connect="1" arrows="1" fold="1" page="1" pageScale="1" pageWidth="827" pageHeight="1169" math="0" shadow="0">
      <root>
        <mxCell id="0" />
        <mxCell id="1" parent="0" />
        <mxCell id="46PUhxlQu6H4vRm4sZMM-1" value="&lt;div&gt;User&lt;/div&gt;" style="shape=umlActor;verticalLabelPosition=bottom;verticalAlign=top;html=1;outlineConnect=0;" parent="1" vertex="1">
          <mxGeometry x="90" y="85" width="30" height="60" as="geometry" />
        </mxCell>
        <mxCell id="46PUhxlQu6H4vRm4sZMM-2" value="" style="rounded=0;whiteSpace=wrap;html=1;" parent="1" vertex="1">
          <mxGeometry x="210" y="20" width="390" height="520" as="geometry" />
        </mxCell>
        <mxCell id="46PUhxlQu6H4vRm4sZMM-3" value="SOS subsystem" style="text;html=1;align=center;verticalAlign=middle;whiteSpace=wrap;rounded=0;" parent="1" vertex="1">
          <mxGeometry x="380" y="20" width="60" height="30" as="geometry" />
        </mxCell>
        <mxCell id="46PUhxlQu6H4vRm4sZMM-4" value="selects SOS" style="ellipse;whiteSpace=wrap;html=1;" parent="1" vertex="1">
          <mxGeometry x="340" y="80" width="140" height="70" as="geometry" />
        </mxCell>
        <mxCell id="46PUhxlQu6H4vRm4sZMM-7" value="" style="edgeStyle=orthogonalEdgeStyle;rounded=0;orthogonalLoop=1;jettySize=auto;html=1;endArrow=open;startFill=0;dashed=1;endFill=0;" parent="1" source="46PUhxlQu6H4vRm4sZMM-5" target="46PUhxlQu6H4vRm4sZMM-4" edge="1">
          <mxGeometry relative="1" as="geometry" />
        </mxCell>
        <mxCell id="46PUhxlQu6H4vRm4sZMM-8" value="&amp;lt;&amp;lt;include&amp;gt;&amp;gt;" style="edgeLabel;html=1;align=center;verticalAlign=middle;resizable=0;points=[];" parent="46PUhxlQu6H4vRm4sZMM-7" vertex="1" connectable="0">
          <mxGeometry x="0.36" y="1" relative="1" as="geometry">
            <mxPoint as="offset" />
          </mxGeometry>
        </mxCell>
        <mxCell id="46PUhxlQu6H4vRm4sZMM-5" value="SOS report is set out" style="ellipse;whiteSpace=wrap;html=1;" parent="1" vertex="1">
          <mxGeometry x="340" y="180" width="140" height="70" as="geometry" />
        </mxCell>
        <mxCell id="46PUhxlQu6H4vRm4sZMM-10" value="" style="edgeStyle=orthogonalEdgeStyle;rounded=0;orthogonalLoop=1;jettySize=auto;html=1;endArrow=open;startFill=0;endFill=0;dashed=1;" parent="1" source="46PUhxlQu6H4vRm4sZMM-6" target="46PUhxlQu6H4vRm4sZMM-5" edge="1">
          <mxGeometry relative="1" as="geometry" />
        </mxCell>
        <mxCell id="46PUhxlQu6H4vRm4sZMM-13" value="&amp;lt;&amp;lt;include&amp;gt;&amp;gt;" style="edgeLabel;html=1;align=center;verticalAlign=middle;resizable=0;points=[];" parent="46PUhxlQu6H4vRm4sZMM-10" vertex="1" connectable="0">
          <mxGeometry x="-0.28" y="1" relative="1" as="geometry">
            <mxPoint as="offset" />
          </mxGeometry>
        </mxCell>
        <mxCell id="46PUhxlQu6H4vRm4sZMM-6" value="share live location and categorise as high priority and authorities" style="ellipse;whiteSpace=wrap;html=1;" parent="1" vertex="1">
          <mxGeometry x="327.5" y="300" width="165" height="100" as="geometry" />
        </mxCell>
        <mxCell id="46PUhxlQu6H4vRm4sZMM-16" style="edgeStyle=orthogonalEdgeStyle;rounded=0;orthogonalLoop=1;jettySize=auto;html=1;endArrow=none;startFill=0;" parent="1" source="46PUhxlQu6H4vRm4sZMM-1" target="46PUhxlQu6H4vRm4sZMM-4" edge="1">
          <mxGeometry relative="1" as="geometry" />
        </mxCell>
        <mxCell id="ZqfVf4vk-PR4hCnkrrfr-2" value="" style="edgeStyle=orthogonalEdgeStyle;rounded=0;orthogonalLoop=1;jettySize=auto;html=1;dashed=1;" edge="1" parent="1" source="ZqfVf4vk-PR4hCnkrrfr-1" target="46PUhxlQu6H4vRm4sZMM-6">
          <mxGeometry relative="1" as="geometry" />
        </mxCell>
        <mxCell id="ZqfVf4vk-PR4hCnkrrfr-3" value="&amp;lt;&amp;lt;include&amp;gt;&amp;gt;" style="edgeLabel;html=1;align=center;verticalAlign=middle;resizable=0;points=[];" vertex="1" connectable="0" parent="ZqfVf4vk-PR4hCnkrrfr-2">
          <mxGeometry x="-0.1" y="-1" relative="1" as="geometry">
            <mxPoint as="offset" />
          </mxGeometry>
        </mxCell>
        <mxCell id="ZqfVf4vk-PR4hCnkrrfr-1" value="Notify nearby users" style="ellipse;whiteSpace=wrap;html=1;" vertex="1" parent="1">
          <mxGeometry x="340" y="440" width="140" height="70" as="geometry" />
        </mxCell>
      </root>
    </mxGraphModel>
  </diagram>
</mxfile>
